<?xml version="1.0" encoding="UTF-8"?><svg xmlns="http://www.w3.org/2000/svg" xmlns:xlink="http://www.w3.org/1999/xlink" contentScriptType="text/ecmascript" width="375" zoomAndPan="magnify" contentStyleType="text/css" viewBox="0 0 375 374.999991" height="374.999991" preserveAspectRatio="xMidYMid meet" version="1.0"><defs><clipPath id="clip-0"><path d="M 199 195 L 309.28125 195 L 309.28125 243 L 199 243 Z M 199 195 " clip-rule="nonzero"/></clipPath><clipPath id="clip-1"><path d="M 65.53125 140 L 176 140 L 176 188 L 65.53125 188 Z M 65.53125 140 " clip-rule="nonzero"/></clipPath></defs><path fill="rgb(0%, 0%, 0%)" d="M 187.5 0 C 83.945312 0 0 83.945312 0 187.5 C 0 291.054688 83.945312 375 187.5 375 C 291.054688 375 375 291.054688 375 187.5 C 375 83.945312 291.054688 0 187.5 0 Z M 187.5 0 " fill-opacity="1" fill-rule="nonzero"/><path fill="rgb(100%, 100%, 100%)" d="M 187.457031 7.457031 C 88.046875 7.457031 7.457031 88.046875 7.457031 187.457031 C 7.457031 286.871094 88.046875 367.457031 187.457031 367.457031 C 286.871094 367.457031 367.457031 286.871094 367.457031 187.457031 C 367.457031 88.046875 286.871094 7.457031 187.457031 7.457031 Z M 187.457031 7.457031 " fill-opacity="1" fill-rule="nonzero"/><g clip-path="url(#clip-0)"><path fill="rgb(0%, 0%, 0%)" d="M 309.085938 195.316406 L 199.09375 195.316406 L 199.09375 242.425781 L 309.085938 242.425781 Z M 309.085938 195.316406 " fill-opacity="1" fill-rule="nonzero"/></g><path fill="rgb(0%, 0%, 0%)" d="M 246.230469 101.105469 L 261.945312 101.105469 L 261.945312 273.828125 L 246.230469 273.828125 Z M 246.230469 101.105469 " fill-opacity="1" fill-rule="nonzero"/><g clip-path="url(#clip-1)"><path fill="rgb(0%, 0%, 0%)" d="M 175.523438 140.359375 L 65.53125 140.359375 L 65.53125 187.464844 L 175.523438 187.464844 Z M 175.523438 140.359375 " fill-opacity="1" fill-rule="nonzero"/></g><path fill="rgb(0%, 0%, 0%)" d="M 112.667969 101.105469 L 128.382812 101.105469 L 128.382812 273.828125 L 112.667969 273.828125 Z M 112.667969 101.105469 " fill-opacity="1" fill-rule="nonzero"/></svg>